<mxfile host="65bd71144e">
    <diagram id="k2QpM61Q9EEfsqvXA4rY" name="第 1 页">
        <mxGraphModel dx="1834" dy="666" grid="1" gridSize="10" guides="1" tooltips="1" connect="1" arrows="1" fold="1" page="1" pageScale="1" pageWidth="827" pageHeight="1169" math="0" shadow="0">
            <root>
                <mxCell id="0"/>
                <mxCell id="1" parent="0"/>
                <mxCell id="4" value="current_task" style="text;html=1;align=center;verticalAlign=middle;resizable=0;points=[];autosize=1;strokeColor=none;fillColor=none;fontSize=14;" vertex="1" parent="1">
                    <mxGeometry x="270" y="60" width="100" height="30" as="geometry"/>
                </mxCell>
                <mxCell id="24" value="" style="group" vertex="1" connectable="0" parent="1">
                    <mxGeometry x="70" y="110" width="500" height="100" as="geometry"/>
                </mxCell>
                <mxCell id="23" value="" style="rounded=0;whiteSpace=wrap;html=1;fontSize=14;container=0;" vertex="1" parent="24">
                    <mxGeometry width="500" height="100" as="geometry"/>
                </mxCell>
                <mxCell id="2" value="&lt;font style=&quot;font-size: 14px;&quot;&gt;&amp;nbsp; &amp;nbsp; os_info&lt;/font&gt;" style="rounded=0;whiteSpace=wrap;html=1;align=left;container=0;" vertex="1" parent="24">
                    <mxGeometry x="10" y="10" width="160" height="80" as="geometry"/>
                </mxCell>
                <mxCell id="3" value="&lt;font style=&quot;font-size: 14px;&quot;&gt;thread_info&lt;/font&gt;" style="rounded=0;whiteSpace=wrap;html=1;container=0;" vertex="1" parent="24">
                    <mxGeometry x="170" y="10" width="160" height="80" as="geometry"/>
                </mxCell>
                <mxCell id="5" value="scheduler" style="rounded=0;whiteSpace=wrap;html=1;fontSize=14;container=0;" vertex="1" parent="24">
                    <mxGeometry x="90" y="30" width="80" height="40" as="geometry"/>
                </mxCell>
                <mxCell id="6" value="&lt;span style=&quot;font-size: 14px;&quot;&gt;context&lt;/span&gt;" style="rounded=0;whiteSpace=wrap;html=1;container=0;" vertex="1" parent="24">
                    <mxGeometry x="330" y="10" width="160" height="80" as="geometry"/>
                </mxCell>
                <mxCell id="25" value="" style="group" vertex="1" connectable="0" parent="1">
                    <mxGeometry x="70" y="270" width="500" height="100" as="geometry"/>
                </mxCell>
                <mxCell id="26" value="" style="rounded=0;whiteSpace=wrap;html=1;fontSize=14;container=0;" vertex="1" parent="25">
                    <mxGeometry width="500" height="100" as="geometry"/>
                </mxCell>
                <mxCell id="27" value="&lt;font style=&quot;font-size: 14px;&quot;&gt;&amp;nbsp; &amp;nbsp; os_info&lt;/font&gt;" style="rounded=0;whiteSpace=wrap;html=1;align=left;container=0;" vertex="1" parent="25">
                    <mxGeometry x="10" y="10" width="160" height="80" as="geometry"/>
                </mxCell>
                <mxCell id="28" value="&lt;font style=&quot;font-size: 14px;&quot;&gt;thread_info&lt;/font&gt;" style="rounded=0;whiteSpace=wrap;html=1;container=0;" vertex="1" parent="25">
                    <mxGeometry x="170" y="10" width="160" height="80" as="geometry"/>
                </mxCell>
                <mxCell id="29" value="scheduler" style="rounded=0;whiteSpace=wrap;html=1;fontSize=14;container=0;" vertex="1" parent="25">
                    <mxGeometry x="90" y="30" width="80" height="40" as="geometry"/>
                </mxCell>
                <mxCell id="30" value="&lt;span style=&quot;font-size: 14px;&quot;&gt;context&lt;/span&gt;" style="rounded=0;whiteSpace=wrap;html=1;container=0;" vertex="1" parent="25">
                    <mxGeometry x="330" y="10" width="160" height="80" as="geometry"/>
                </mxCell>
                <mxCell id="37" value="" style="group" vertex="1" connectable="0" parent="1">
                    <mxGeometry x="590" y="210" width="180" height="60" as="geometry"/>
                </mxCell>
                <mxCell id="36" value="" style="rounded=0;whiteSpace=wrap;html=1;fontSize=14;" vertex="1" parent="37">
                    <mxGeometry width="180" height="60" as="geometry"/>
                </mxCell>
                <mxCell id="13" value="info" style="rounded=0;whiteSpace=wrap;html=1;fontSize=14;" vertex="1" parent="37">
                    <mxGeometry x="10" y="10" width="80" height="40" as="geometry"/>
                </mxCell>
                <mxCell id="14" value="context" style="rounded=0;whiteSpace=wrap;html=1;fontSize=14;" vertex="1" parent="37">
                    <mxGeometry x="90" y="10" width="80" height="40" as="geometry"/>
                </mxCell>
                <mxCell id="34" style="edgeStyle=orthogonalEdgeStyle;rounded=0;html=1;exitX=1;exitY=0.25;exitDx=0;exitDy=0;entryX=0.5;entryY=1;entryDx=0;entryDy=0;fontSize=14;" edge="1" parent="1" source="30" target="14">
                    <mxGeometry relative="1" as="geometry"/>
                </mxCell>
                <mxCell id="31" style="edgeStyle=orthogonalEdgeStyle;rounded=0;html=1;exitX=0.75;exitY=0;exitDx=0;exitDy=0;entryX=0;entryY=0.75;entryDx=0;entryDy=0;fontSize=14;" edge="1" parent="1" source="28" target="13">
                    <mxGeometry relative="1" as="geometry"/>
                </mxCell>
                <mxCell id="39" value="" style="group" vertex="1" connectable="0" parent="1">
                    <mxGeometry x="590" y="370" width="180" height="60" as="geometry"/>
                </mxCell>
                <mxCell id="38" value="" style="rounded=0;whiteSpace=wrap;html=1;fontSize=14;container=0;" vertex="1" parent="39">
                    <mxGeometry width="180" height="60" as="geometry"/>
                </mxCell>
                <mxCell id="17" value="info" style="rounded=0;whiteSpace=wrap;html=1;fontSize=14;container=0;" vertex="1" parent="39">
                    <mxGeometry x="10" y="10" width="80" height="40" as="geometry"/>
                </mxCell>
                <mxCell id="18" value="context" style="rounded=0;whiteSpace=wrap;html=1;fontSize=14;container=0;" vertex="1" parent="39">
                    <mxGeometry x="90" y="10" width="80" height="40" as="geometry"/>
                </mxCell>
                <mxCell id="35" style="edgeStyle=orthogonalEdgeStyle;rounded=0;html=1;exitX=0.5;exitY=0;exitDx=0;exitDy=0;entryX=1;entryY=0.75;entryDx=0;entryDy=0;fontSize=14;" edge="1" parent="1" source="18" target="30">
                    <mxGeometry relative="1" as="geometry"/>
                </mxCell>
                <mxCell id="33" style="edgeStyle=orthogonalEdgeStyle;rounded=0;html=1;exitX=0;exitY=0.25;exitDx=0;exitDy=0;entryX=0.75;entryY=1;entryDx=0;entryDy=0;fontSize=14;" edge="1" parent="1" source="17" target="28">
                    <mxGeometry relative="1" as="geometry"/>
                </mxCell>
                <mxCell id="40" style="edgeStyle=orthogonalEdgeStyle;rounded=0;html=1;exitX=0;exitY=0.25;exitDx=0;exitDy=0;entryX=0.5;entryY=0;entryDx=0;entryDy=0;fontSize=14;" edge="1" parent="1" source="36" target="29">
                    <mxGeometry relative="1" as="geometry"/>
                </mxCell>
                <mxCell id="41" style="edgeStyle=orthogonalEdgeStyle;rounded=0;html=1;exitX=0.5;exitY=1;exitDx=0;exitDy=0;entryX=0;entryY=0.75;entryDx=0;entryDy=0;fontSize=14;" edge="1" parent="1" source="29" target="38">
                    <mxGeometry relative="1" as="geometry"/>
                </mxCell>
                <mxCell id="42" value="task" style="text;html=1;align=center;verticalAlign=middle;resizable=0;points=[];autosize=1;strokeColor=none;fillColor=none;fontSize=14;" vertex="1" parent="1">
                    <mxGeometry x="655" y="170" width="50" height="30" as="geometry"/>
                </mxCell>
                <mxCell id="50" value="" style="group" vertex="1" connectable="0" parent="1">
                    <mxGeometry x="70" y="430" width="500" height="100" as="geometry"/>
                </mxCell>
                <mxCell id="44" value="" style="rounded=0;whiteSpace=wrap;html=1;fontSize=14;container=0;" vertex="1" parent="50">
                    <mxGeometry width="500" height="100" as="geometry"/>
                </mxCell>
                <mxCell id="45" value="&lt;font style=&quot;font-size: 14px;&quot;&gt;&amp;nbsp; &amp;nbsp; os_info&lt;/font&gt;" style="rounded=0;whiteSpace=wrap;html=1;align=left;container=0;" vertex="1" parent="50">
                    <mxGeometry x="10" y="10" width="160" height="80" as="geometry"/>
                </mxCell>
                <mxCell id="46" value="&lt;font style=&quot;font-size: 14px;&quot;&gt;process_info&lt;/font&gt;" style="rounded=0;whiteSpace=wrap;html=1;container=0;align=left;" vertex="1" parent="50">
                    <mxGeometry x="170" y="10" width="160" height="80" as="geometry"/>
                </mxCell>
                <mxCell id="47" value="scheduler" style="rounded=0;whiteSpace=wrap;html=1;fontSize=14;container=0;" vertex="1" parent="50">
                    <mxGeometry x="90" y="30" width="80" height="40" as="geometry"/>
                </mxCell>
                <mxCell id="48" value="&lt;span style=&quot;font-size: 14px;&quot;&gt;context&lt;/span&gt;" style="rounded=0;whiteSpace=wrap;html=1;container=0;" vertex="1" parent="50">
                    <mxGeometry x="330" y="10" width="160" height="80" as="geometry"/>
                </mxCell>
                <mxCell id="49" value="scheduler" style="rounded=0;whiteSpace=wrap;html=1;fontSize=14;container=0;" vertex="1" parent="50">
                    <mxGeometry x="250" y="30" width="80" height="40" as="geometry"/>
                </mxCell>
                <mxCell id="51" value="" style="group" vertex="1" connectable="0" parent="1">
                    <mxGeometry x="70" y="590" width="500" height="100" as="geometry"/>
                </mxCell>
                <mxCell id="52" value="" style="rounded=0;whiteSpace=wrap;html=1;fontSize=14;container=0;" vertex="1" parent="51">
                    <mxGeometry width="500" height="100" as="geometry"/>
                </mxCell>
                <mxCell id="53" value="&lt;font style=&quot;font-size: 14px;&quot;&gt;&amp;nbsp; &amp;nbsp; os_info&lt;/font&gt;" style="rounded=0;whiteSpace=wrap;html=1;align=left;container=0;" vertex="1" parent="51">
                    <mxGeometry x="10" y="10" width="160" height="80" as="geometry"/>
                </mxCell>
                <mxCell id="54" value="&lt;font style=&quot;font-size: 14px;&quot;&gt;process_info&lt;/font&gt;" style="rounded=0;whiteSpace=wrap;html=1;container=0;align=left;" vertex="1" parent="51">
                    <mxGeometry x="170" y="10" width="160" height="80" as="geometry"/>
                </mxCell>
                <mxCell id="55" value="scheduler" style="rounded=0;whiteSpace=wrap;html=1;fontSize=14;container=0;" vertex="1" parent="51">
                    <mxGeometry x="90" y="30" width="80" height="40" as="geometry"/>
                </mxCell>
                <mxCell id="56" value="&lt;span style=&quot;font-size: 14px;&quot;&gt;context&lt;/span&gt;" style="rounded=0;whiteSpace=wrap;html=1;container=0;" vertex="1" parent="51">
                    <mxGeometry x="330" y="10" width="160" height="80" as="geometry"/>
                </mxCell>
                <mxCell id="57" value="scheduler" style="rounded=0;whiteSpace=wrap;html=1;fontSize=14;container=0;" vertex="1" parent="51">
                    <mxGeometry x="250" y="30" width="80" height="40" as="geometry"/>
                </mxCell>
                <mxCell id="58" value="" style="group" vertex="1" connectable="0" parent="1">
                    <mxGeometry x="590" y="530" width="180" height="60" as="geometry"/>
                </mxCell>
                <mxCell id="59" value="" style="rounded=0;whiteSpace=wrap;html=1;fontSize=14;" vertex="1" parent="58">
                    <mxGeometry width="180" height="60" as="geometry"/>
                </mxCell>
                <mxCell id="60" value="info" style="rounded=0;whiteSpace=wrap;html=1;fontSize=14;" vertex="1" parent="58">
                    <mxGeometry x="10" y="10" width="80" height="40" as="geometry"/>
                </mxCell>
                <mxCell id="61" value="context" style="rounded=0;whiteSpace=wrap;html=1;fontSize=14;" vertex="1" parent="58">
                    <mxGeometry x="90" y="10" width="80" height="40" as="geometry"/>
                </mxCell>
                <mxCell id="62" value="" style="group" vertex="1" connectable="0" parent="1">
                    <mxGeometry x="590" y="690" width="180" height="60" as="geometry"/>
                </mxCell>
                <mxCell id="63" value="" style="rounded=0;whiteSpace=wrap;html=1;fontSize=14;" vertex="1" parent="62">
                    <mxGeometry width="180" height="60" as="geometry"/>
                </mxCell>
                <mxCell id="64" value="info" style="rounded=0;whiteSpace=wrap;html=1;fontSize=14;" vertex="1" parent="62">
                    <mxGeometry x="10" y="10" width="80" height="40" as="geometry"/>
                </mxCell>
                <mxCell id="65" value="context" style="rounded=0;whiteSpace=wrap;html=1;fontSize=14;" vertex="1" parent="62">
                    <mxGeometry x="90" y="10" width="80" height="40" as="geometry"/>
                </mxCell>
                <mxCell id="71" style="edgeStyle=orthogonalEdgeStyle;rounded=0;html=1;entryX=0;entryY=0.75;entryDx=0;entryDy=0;fontSize=14;" edge="1" parent="1" source="70" target="60">
                    <mxGeometry relative="1" as="geometry"/>
                </mxCell>
                <mxCell id="70" value="new" style="text;html=1;align=center;verticalAlign=middle;resizable=0;points=[];autosize=1;strokeColor=none;fillColor=none;fontSize=14;" vertex="1" parent="1">
                    <mxGeometry x="510" y="555" width="50" height="30" as="geometry"/>
                </mxCell>
                <mxCell id="73" style="edgeStyle=orthogonalEdgeStyle;rounded=0;html=1;exitX=0;exitY=0.25;exitDx=0;exitDy=0;entryX=0.5;entryY=0;entryDx=0;entryDy=0;fontSize=14;" edge="1" parent="1" source="59" target="57">
                    <mxGeometry relative="1" as="geometry"/>
                </mxCell>
                <mxCell id="74" style="edgeStyle=orthogonalEdgeStyle;rounded=0;html=1;exitX=1;exitY=0.25;exitDx=0;exitDy=0;entryX=0.5;entryY=1;entryDx=0;entryDy=0;fontSize=14;" edge="1" parent="1" source="56" target="61">
                    <mxGeometry relative="1" as="geometry"/>
                </mxCell>
                <mxCell id="76" style="edgeStyle=orthogonalEdgeStyle;rounded=0;html=1;exitX=0.5;exitY=0;exitDx=0;exitDy=0;entryX=1;entryY=0.75;entryDx=0;entryDy=0;fontSize=14;" edge="1" parent="1" source="65" target="56">
                    <mxGeometry relative="1" as="geometry"/>
                </mxCell>
                <mxCell id="77" style="edgeStyle=orthogonalEdgeStyle;rounded=0;html=1;exitX=0;exitY=0.25;exitDx=0;exitDy=0;entryX=1;entryY=1;entryDx=0;entryDy=0;fontSize=14;" edge="1" parent="1" source="64" target="54">
                    <mxGeometry relative="1" as="geometry"/>
                </mxCell>
                <mxCell id="78" style="edgeStyle=orthogonalEdgeStyle;rounded=0;html=1;exitX=0.5;exitY=1;exitDx=0;exitDy=0;entryX=0;entryY=0.75;entryDx=0;entryDy=0;fontSize=14;" edge="1" parent="1" source="57" target="63">
                    <mxGeometry relative="1" as="geometry"/>
                </mxCell>
                <mxCell id="87" value="" style="group" vertex="1" connectable="0" parent="1">
                    <mxGeometry x="70" y="790" width="660" height="100" as="geometry"/>
                </mxCell>
                <mxCell id="80" value="" style="rounded=0;whiteSpace=wrap;html=1;fontSize=14;container=0;" vertex="1" parent="87">
                    <mxGeometry width="660" height="100" as="geometry"/>
                </mxCell>
                <mxCell id="81" value="&lt;font style=&quot;font-size: 14px;&quot;&gt;&amp;nbsp; &amp;nbsp; os_info&lt;/font&gt;" style="rounded=0;whiteSpace=wrap;html=1;align=left;container=0;" vertex="1" parent="87">
                    <mxGeometry x="10" y="10" width="160" height="80" as="geometry"/>
                </mxCell>
                <mxCell id="82" value="&lt;font style=&quot;font-size: 14px;&quot;&gt;process_info&lt;/font&gt;" style="rounded=0;whiteSpace=wrap;html=1;container=0;align=left;" vertex="1" parent="87">
                    <mxGeometry x="170" y="10" width="160" height="80" as="geometry"/>
                </mxCell>
                <mxCell id="83" value="scheduler" style="rounded=0;whiteSpace=wrap;html=1;fontSize=14;container=0;" vertex="1" parent="87">
                    <mxGeometry x="90" y="30" width="80" height="40" as="geometry"/>
                </mxCell>
                <mxCell id="84" value="&lt;span style=&quot;font-size: 14px;&quot;&gt;thread_info&lt;/span&gt;" style="rounded=0;whiteSpace=wrap;html=1;container=0;" vertex="1" parent="87">
                    <mxGeometry x="330" y="10" width="160" height="80" as="geometry"/>
                </mxCell>
                <mxCell id="85" value="scheduler" style="rounded=0;whiteSpace=wrap;html=1;fontSize=14;container=0;" vertex="1" parent="87">
                    <mxGeometry x="250" y="30" width="80" height="40" as="geometry"/>
                </mxCell>
                <mxCell id="86" value="&lt;span style=&quot;font-size: 14px;&quot;&gt;context&lt;/span&gt;" style="rounded=0;whiteSpace=wrap;html=1;container=0;" vertex="1" parent="87">
                    <mxGeometry x="490" y="10" width="160" height="80" as="geometry"/>
                </mxCell>
                <mxCell id="88" value="" style="group" vertex="1" connectable="0" parent="1">
                    <mxGeometry x="70" y="990" width="660" height="100" as="geometry"/>
                </mxCell>
                <mxCell id="89" value="" style="rounded=0;whiteSpace=wrap;html=1;fontSize=14;container=0;" vertex="1" parent="88">
                    <mxGeometry width="660" height="100" as="geometry"/>
                </mxCell>
                <mxCell id="90" value="&lt;font style=&quot;font-size: 14px;&quot;&gt;&amp;nbsp; &amp;nbsp; os_info&lt;/font&gt;" style="rounded=0;whiteSpace=wrap;html=1;align=left;container=0;" vertex="1" parent="88">
                    <mxGeometry x="10" y="10" width="160" height="80" as="geometry"/>
                </mxCell>
                <mxCell id="91" value="&lt;font style=&quot;font-size: 14px;&quot;&gt;process_info&lt;/font&gt;" style="rounded=0;whiteSpace=wrap;html=1;container=0;align=left;" vertex="1" parent="88">
                    <mxGeometry x="170" y="10" width="160" height="80" as="geometry"/>
                </mxCell>
                <mxCell id="92" value="scheduler" style="rounded=0;whiteSpace=wrap;html=1;fontSize=14;container=0;" vertex="1" parent="88">
                    <mxGeometry x="90" y="30" width="80" height="40" as="geometry"/>
                </mxCell>
                <mxCell id="93" value="&lt;span style=&quot;font-size: 14px;&quot;&gt;thread_info&lt;/span&gt;" style="rounded=0;whiteSpace=wrap;html=1;container=0;" vertex="1" parent="88">
                    <mxGeometry x="330" y="10" width="160" height="80" as="geometry"/>
                </mxCell>
                <mxCell id="94" value="scheduler" style="rounded=0;whiteSpace=wrap;html=1;fontSize=14;container=0;" vertex="1" parent="88">
                    <mxGeometry x="250" y="30" width="80" height="40" as="geometry"/>
                </mxCell>
                <mxCell id="95" value="&lt;span style=&quot;font-size: 14px;&quot;&gt;context&lt;/span&gt;" style="rounded=0;whiteSpace=wrap;html=1;container=0;" vertex="1" parent="88">
                    <mxGeometry x="490" y="10" width="160" height="80" as="geometry"/>
                </mxCell>
                <mxCell id="96" value="" style="group" vertex="1" connectable="0" parent="1">
                    <mxGeometry x="750" y="930" width="180" height="60" as="geometry"/>
                </mxCell>
                <mxCell id="97" value="" style="rounded=0;whiteSpace=wrap;html=1;fontSize=14;" vertex="1" parent="96">
                    <mxGeometry width="180" height="60" as="geometry"/>
                </mxCell>
                <mxCell id="98" value="info" style="rounded=0;whiteSpace=wrap;html=1;fontSize=14;" vertex="1" parent="96">
                    <mxGeometry x="10" y="10" width="80" height="40" as="geometry"/>
                </mxCell>
                <mxCell id="99" value="context" style="rounded=0;whiteSpace=wrap;html=1;fontSize=14;" vertex="1" parent="96">
                    <mxGeometry x="90" y="10" width="80" height="40" as="geometry"/>
                </mxCell>
                <mxCell id="100" value="" style="group" vertex="1" connectable="0" parent="1">
                    <mxGeometry x="750" y="1090" width="180" height="60" as="geometry"/>
                </mxCell>
                <mxCell id="101" value="" style="rounded=0;whiteSpace=wrap;html=1;fontSize=14;" vertex="1" parent="100">
                    <mxGeometry width="180" height="60" as="geometry"/>
                </mxCell>
                <mxCell id="102" value="info" style="rounded=0;whiteSpace=wrap;html=1;fontSize=14;" vertex="1" parent="100">
                    <mxGeometry x="10" y="10" width="80" height="40" as="geometry"/>
                </mxCell>
                <mxCell id="103" value="context" style="rounded=0;whiteSpace=wrap;html=1;fontSize=14;" vertex="1" parent="100">
                    <mxGeometry x="90" y="10" width="80" height="40" as="geometry"/>
                </mxCell>
                <mxCell id="104" style="edgeStyle=orthogonalEdgeStyle;rounded=0;html=1;exitX=0.75;exitY=0;exitDx=0;exitDy=0;entryX=0;entryY=0.75;entryDx=0;entryDy=0;fontSize=14;" edge="1" parent="1" source="91" target="98">
                    <mxGeometry relative="1" as="geometry"/>
                </mxCell>
                <mxCell id="105" style="edgeStyle=orthogonalEdgeStyle;rounded=0;html=1;exitX=1;exitY=0.25;exitDx=0;exitDy=0;entryX=0.5;entryY=1;entryDx=0;entryDy=0;fontSize=14;" edge="1" parent="1" source="95" target="99">
                    <mxGeometry relative="1" as="geometry"/>
                </mxCell>
                <mxCell id="106" style="edgeStyle=orthogonalEdgeStyle;rounded=0;html=1;exitX=0;exitY=0.25;exitDx=0;exitDy=0;entryX=0.75;entryY=1;entryDx=0;entryDy=0;fontSize=14;" edge="1" parent="1" source="102" target="91">
                    <mxGeometry relative="1" as="geometry"/>
                </mxCell>
                <mxCell id="107" style="edgeStyle=orthogonalEdgeStyle;rounded=0;html=1;exitX=0.5;exitY=0;exitDx=0;exitDy=0;entryX=1;entryY=0.75;entryDx=0;entryDy=0;fontSize=14;" edge="1" parent="1" source="103" target="95">
                    <mxGeometry relative="1" as="geometry"/>
                </mxCell>
                <mxCell id="108" style="edgeStyle=orthogonalEdgeStyle;rounded=0;html=1;exitX=0.5;exitY=0;exitDx=0;exitDy=0;entryX=0.5;entryY=0;entryDx=0;entryDy=0;fontSize=14;dashed=1;" edge="1" parent="1" source="93" target="99">
                    <mxGeometry relative="1" as="geometry">
                        <Array as="points">
                            <mxPoint x="480" y="910"/>
                            <mxPoint x="880" y="910"/>
                        </Array>
                    </mxGeometry>
                </mxCell>
                <mxCell id="109" style="edgeStyle=orthogonalEdgeStyle;rounded=0;html=1;exitX=0;exitY=0.25;exitDx=0;exitDy=0;entryX=0.5;entryY=0;entryDx=0;entryDy=0;fontSize=14;" edge="1" parent="1" source="97" target="92">
                    <mxGeometry relative="1" as="geometry"/>
                </mxCell>
                <mxCell id="110" style="edgeStyle=orthogonalEdgeStyle;rounded=0;html=1;exitX=0.5;exitY=1;exitDx=0;exitDy=0;entryX=0;entryY=0.75;entryDx=0;entryDy=0;fontSize=14;" edge="1" parent="1" source="92" target="101">
                    <mxGeometry relative="1" as="geometry"/>
                </mxCell>
                <mxCell id="112" style="edgeStyle=orthogonalEdgeStyle;rounded=0;html=1;exitX=0;exitY=0.5;exitDx=0;exitDy=0;entryX=0;entryY=0.5;entryDx=0;entryDy=0;fontSize=14;curved=1;dashed=1;" edge="1" parent="1" source="23" target="44">
                    <mxGeometry relative="1" as="geometry">
                        <Array as="points">
                            <mxPoint x="20" y="160"/>
                            <mxPoint x="20" y="480"/>
                        </Array>
                    </mxGeometry>
                </mxCell>
                <mxCell id="113" value="(1)&lt;br&gt;kernel thread&lt;br&gt;↓&lt;br&gt;user process" style="text;html=1;strokeColor=none;fillColor=none;align=center;verticalAlign=middle;whiteSpace=wrap;rounded=0;fontSize=14;" vertex="1" parent="1">
                    <mxGeometry x="-100" y="280" width="120" height="80" as="geometry"/>
                </mxCell>
                <mxCell id="114" style="edgeStyle=orthogonalEdgeStyle;curved=1;rounded=0;html=1;exitX=0;exitY=0.5;exitDx=0;exitDy=0;entryX=0;entryY=0.5;entryDx=0;entryDy=0;dashed=1;fontSize=14;" edge="1" parent="1" source="44" target="80">
                    <mxGeometry relative="1" as="geometry">
                        <Array as="points">
                            <mxPoint x="20" y="480"/>
                            <mxPoint x="20" y="840"/>
                        </Array>
                    </mxGeometry>
                </mxCell>
                <mxCell id="115" value="(2)&lt;br&gt;user process&lt;br&gt;↓&lt;br&gt;user thread" style="text;html=1;strokeColor=none;fillColor=none;align=center;verticalAlign=middle;whiteSpace=wrap;rounded=0;fontSize=14;" vertex="1" parent="1">
                    <mxGeometry x="-100" y="640" width="120" height="80" as="geometry"/>
                </mxCell>
                <mxCell id="116" value="" style="group" vertex="1" connectable="0" parent="1">
                    <mxGeometry x="70" y="1160" width="500" height="100" as="geometry"/>
                </mxCell>
                <mxCell id="117" value="" style="rounded=0;whiteSpace=wrap;html=1;fontSize=14;container=0;" vertex="1" parent="116">
                    <mxGeometry width="500" height="100" as="geometry"/>
                </mxCell>
                <mxCell id="118" value="&lt;font style=&quot;font-size: 14px;&quot;&gt;&amp;nbsp; &amp;nbsp; os_info&lt;/font&gt;" style="rounded=0;whiteSpace=wrap;html=1;align=left;container=0;" vertex="1" parent="116">
                    <mxGeometry x="10" y="10" width="160" height="80" as="geometry"/>
                </mxCell>
                <mxCell id="119" value="&lt;font style=&quot;font-size: 14px;&quot;&gt;thread_info&lt;/font&gt;" style="rounded=0;whiteSpace=wrap;html=1;container=0;" vertex="1" parent="116">
                    <mxGeometry x="170" y="10" width="160" height="80" as="geometry"/>
                </mxCell>
                <mxCell id="120" value="scheduler" style="rounded=0;whiteSpace=wrap;html=1;fontSize=14;container=0;" vertex="1" parent="116">
                    <mxGeometry x="90" y="30" width="80" height="40" as="geometry"/>
                </mxCell>
                <mxCell id="121" value="&lt;span style=&quot;font-size: 14px;&quot;&gt;context&lt;/span&gt;" style="rounded=0;whiteSpace=wrap;html=1;container=0;" vertex="1" parent="116">
                    <mxGeometry x="330" y="10" width="160" height="80" as="geometry"/>
                </mxCell>
                <mxCell id="122" style="edgeStyle=orthogonalEdgeStyle;curved=1;rounded=0;html=1;exitX=0;exitY=0.5;exitDx=0;exitDy=0;entryX=0;entryY=0.5;entryDx=0;entryDy=0;dashed=1;fontSize=14;" edge="1" parent="1" source="80" target="117">
                    <mxGeometry relative="1" as="geometry">
                        <Array as="points">
                            <mxPoint x="20" y="840"/>
                            <mxPoint x="20" y="1210"/>
                        </Array>
                    </mxGeometry>
                </mxCell>
                <mxCell id="123" value="(3)&lt;br&gt;user thread&lt;br&gt;↓&lt;br&gt;kernel thread" style="text;html=1;strokeColor=none;fillColor=none;align=center;verticalAlign=middle;whiteSpace=wrap;rounded=0;fontSize=14;" vertex="1" parent="1">
                    <mxGeometry x="-100" y="1000" width="120" height="80" as="geometry"/>
                </mxCell>
                <mxCell id="124" value="kernel thread" style="text;html=1;align=center;verticalAlign=middle;resizable=0;points=[];autosize=1;strokeColor=none;fillColor=none;fontSize=14;" vertex="1" parent="1">
                    <mxGeometry x="770" y="225" width="110" height="30" as="geometry"/>
                </mxCell>
                <mxCell id="125" value="user process" style="text;html=1;align=center;verticalAlign=middle;resizable=0;points=[];autosize=1;strokeColor=none;fillColor=none;fontSize=14;" vertex="1" parent="1">
                    <mxGeometry x="770" y="385" width="100" height="30" as="geometry"/>
                </mxCell>
                <mxCell id="126" value="user thread" style="text;html=1;align=center;verticalAlign=middle;resizable=0;points=[];autosize=1;strokeColor=none;fillColor=none;fontSize=14;" vertex="1" parent="1">
                    <mxGeometry x="770" y="545" width="90" height="30" as="geometry"/>
                </mxCell>
                <mxCell id="127" value="user thread" style="text;html=1;align=center;verticalAlign=middle;resizable=0;points=[];autosize=1;strokeColor=none;fillColor=none;fontSize=14;" vertex="1" parent="1">
                    <mxGeometry x="770" y="705" width="90" height="30" as="geometry"/>
                </mxCell>
                <mxCell id="128" value="user process" style="text;html=1;align=center;verticalAlign=middle;resizable=0;points=[];autosize=1;strokeColor=none;fillColor=none;fontSize=14;" vertex="1" parent="1">
                    <mxGeometry x="930" y="945" width="100" height="30" as="geometry"/>
                </mxCell>
                <mxCell id="129" value="kernel thread" style="text;html=1;align=center;verticalAlign=middle;resizable=0;points=[];autosize=1;strokeColor=none;fillColor=none;fontSize=14;" vertex="1" parent="1">
                    <mxGeometry x="930" y="1105" width="110" height="30" as="geometry"/>
                </mxCell>
            </root>
        </mxGraphModel>
    </diagram>
</mxfile>